
<global>
amp_veltrack=0
ampeg_release=0.35
</global>

<group>
group_label=PP
seq_length=1
seq_position=1
xf_cccurve=gain
xfin_hicc1=42
xfout_hicc1=85
xfout_locc1=42

<region>
hikey=g#5
hivel=127
lokey=g5
loop_end=275302
loop_mode=loop_continuous
loop_start=98098
loop_xfade=44301
lovel=0
offset=9393
pitch_keycenter=g#5
sample=Violas_trill_whole_PP_G#5.opus
</region>

<region>
hikey=g#4
hivel=127
lokey=g4
loop_end=261404
loop_mode=loop_continuous
loop_start=93146
loop_xfade=42064
lovel=0
offset=9510
pitch_keycenter=g#4
sample=Violas_trill_whole_PP_G#4.opus
</region>

<region>
hikey=g#3
hivel=127
lokey=g3
loop_end=232332
loop_mode=loop_continuous
loop_start=82787
loop_xfade=37386
lovel=0
offset=452
pitch_keycenter=g#3
sample=Violas_trill_whole_PP_G#3.opus
</region>

<region>
hikey=f#5
hivel=127
lokey=f5
loop_end=234551
loop_mode=loop_continuous
loop_start=83577
loop_xfade=37743
lovel=0
offset=566
pitch_keycenter=f#5
sample=Violas_trill_whole_PP_F#5.opus
</region>

<region>
hikey=f#4
hivel=127
lokey=f4
loop_end=259698
loop_mode=loop_continuous
loop_start=92538
loop_xfade=41790
lovel=0
offset=1445
pitch_keycenter=f#4
sample=Violas_trill_whole_PP_F#4.opus
</region>

<region>
hikey=f#3
hivel=127
lokey=f3
loop_end=227635
loop_mode=loop_continuous
loop_start=81113
loop_xfade=36630
lovel=0
offset=2332
pitch_keycenter=f#3
sample=Violas_trill_whole_PP_F#3.opus
</region>

<region>
hikey=e5
hivel=127
lokey=d#5
loop_end=231164
loop_mode=loop_continuous
loop_start=82370
loop_xfade=37198
lovel=0
offset=996
pitch_keycenter=e5
sample=Violas_trill_whole_PP_E5.opus
</region>

<region>
hikey=e4
hivel=127
lokey=d#4
loop_end=251110
loop_mode=loop_continuous
loop_start=89478
loop_xfade=40408
lovel=0
offset=4118
pitch_keycenter=e4
sample=Violas_trill_whole_PP_E4.opus
</region>

<region>
hikey=e3
hivel=127
lokey=d#3
loop_end=233524
loop_mode=loop_continuous
loop_start=83212
loop_xfade=37578
lovel=0
offset=3081
pitch_keycenter=e3
sample=Violas_trill_whole_PP_E3.opus
</region>

<region>
hikey=d5
hivel=127
lokey=c#5
loop_end=274874
loop_mode=loop_continuous
loop_start=97946
loop_xfade=44232
lovel=0
offset=6792
pitch_keycenter=d5
sample=Violas_trill_whole_PP_D5.opus
</region>

<region>
hikey=d4
hivel=127
lokey=c#4
loop_end=272321
loop_mode=loop_continuous
loop_start=97036
loop_xfade=43821
lovel=0
offset=941
pitch_keycenter=d4
sample=Violas_trill_whole_PP_D4.opus
</region>

<region>
hikey=d3
hivel=127
lokey=c#3
loop_end=249302
loop_mode=loop_continuous
loop_start=88834
loop_xfade=40117
lovel=0
offset=7127
pitch_keycenter=d3
sample=Violas_trill_whole_PP_D3.opus
</region>

<region>
hikey=c6
hivel=127
lokey=b5
loop_end=264409
loop_mode=loop_continuous
loop_start=94217
loop_xfade=42548
lovel=0
offset=8164
pitch_keycenter=C6
sample=Violas_trill_whole_PP_C6.opus
</region>

<region>
hikey=c5
hivel=127
lokey=b4
loop_end=280253
loop_mode=loop_continuous
loop_start=99862
loop_xfade=45097
lovel=0
offset=11689
pitch_keycenter=c5
sample=Violas_trill_whole_PP_C5.opus
</region>

<region>
hikey=c4
hivel=127
lokey=b3
loop_end=257768
loop_mode=loop_continuous
loop_start=91850
loop_xfade=41479
lovel=0
offset=13869
pitch_keycenter=c4
sample=Violas_trill_whole_PP_C4.opus
</region>

<region>
hivel=127
key=c3
loop_end=238493
loop_mode=loop_continuous
loop_start=84982
loop_xfade=38377
lovel=0
offset=2872
sample=Violas_trill_whole_PP_C3.opus
</region>

<region>
hikey=a#5
hivel=127
lokey=a5
loop_end=271141
loop_mode=loop_continuous
loop_start=96615
loop_xfade=43631
lovel=0
offset=6450
pitch_keycenter=a#5
sample=Violas_trill_whole_PP_A#5.opus
</region>

<region>
hikey=a#4
hivel=127
lokey=a4
loop_end=269379
loop_mode=loop_continuous
loop_start=95988
loop_xfade=43347
lovel=0
offset=3996
pitch_keycenter=a#4
sample=Violas_trill_whole_PP_A#4.opus
</region>

<region>
hikey=a#3
hivel=127
lokey=a3
loop_end=239701
loop_mode=loop_continuous
loop_start=85412
loop_xfade=38572
lovel=0
offset=2214
pitch_keycenter=a#3
sample=Violas_trill_whole_PP_A#3.opus
</region>
</group>

<group>
group_label=MF
seq_length=1
seq_position=1
xf_cccurve=gain
xfin_hicc1=85
xfin_locc1=42
xfout_hicc1=127
xfout_locc1=85

<region>
hikey=g#5
hivel=127
lokey=g5
loop_end=227096
loop_mode=loop_continuous
loop_start=80921
loop_xfade=36543
lovel=0
offset=2096
pitch_keycenter=g#5
sample=Violas_trill_whole_MF_G#5.opus
</region>

<region>
hikey=g#4
hivel=127
lokey=g4
loop_end=233413
loop_mode=loop_continuous
loop_start=83172
loop_xfade=37560
lovel=0
offset=971
pitch_keycenter=g#4
sample=Violas_trill_whole_MF_G#4.opus
</region>

<region>
hikey=g#3
hivel=127
lokey=g3
loop_end=232360
loop_mode=loop_continuous
loop_start=82797
loop_xfade=37390
lovel=0
offset=1381
pitch_keycenter=g#3
sample=Violas_trill_whole_MF_G#3.opus
</region>

<region>
hikey=f#5
hivel=127
lokey=f5
loop_end=232060
loop_mode=loop_continuous
loop_start=82690
loop_xfade=37342
lovel=0
offset=963
pitch_keycenter=f#5
sample=Violas_trill_whole_MF_F#5.opus
</region>

<region>
hikey=f#4
hivel=127
lokey=f4
loop_end=234893
loop_mode=loop_continuous
loop_start=83699
loop_xfade=37798
lovel=0
offset=2662
pitch_keycenter=f#4
sample=Violas_trill_whole_MF_F#4.opus
</region>

<region>
hikey=f#3
hivel=127
lokey=f3
loop_end=229582
loop_mode=loop_continuous
loop_start=81807
loop_xfade=36943
lovel=0
offset=182
pitch_keycenter=f#3
sample=Violas_trill_whole_MF_F#3.opus
</region>

<region>
hikey=e5
hivel=127
lokey=d#5
loop_end=236814
loop_mode=loop_continuous
loop_start=84384
loop_xfade=38107
lovel=0
offset=3469
pitch_keycenter=e5
sample=Violas_trill_whole_MF_E5.opus
</region>

<region>
hikey=e4
hivel=127
lokey=d#4
loop_end=251141
loop_mode=loop_continuous
loop_start=89489
loop_xfade=40413
lovel=0
offset=5438
pitch_keycenter=e4
sample=Violas_trill_whole_MF_E4.opus
</region>

<region>
hikey=e3
hivel=127
lokey=d#3
loop_end=234886
loop_mode=loop_continuous
loop_start=83697
loop_xfade=37797
lovel=0
offset=1549
pitch_keycenter=e3
sample=Violas_trill_whole_MF_E3.opus
</region>

<region>
hikey=d5
hivel=127
lokey=c#5
loop_end=241768
loop_mode=loop_continuous
loop_start=86149
loop_xfade=38904
lovel=0
offset=2197
pitch_keycenter=d5
sample=Violas_trill_whole_MF_D5.opus
</region>

<region>
hikey=d4
hivel=127
lokey=c#4
loop_end=228187
loop_mode=loop_continuous
loop_start=81310
loop_xfade=36719
lovel=0
offset=179
pitch_keycenter=d4
sample=Violas_trill_whole_MF_D4.opus
</region>

<region>
hikey=d3
hivel=127
lokey=c#3
loop_end=236276
loop_mode=loop_continuous
loop_start=84192
loop_xfade=38021
lovel=0
offset=812
pitch_keycenter=d3
sample=Violas_trill_whole_MF_D3.opus
</region>

<region>
hikey=c6
hivel=127
lokey=b5
loop_end=235346
loop_mode=loop_continuous
loop_start=83861
loop_xfade=37871
lovel=0
offset=2425
pitch_keycenter=C6
sample=Violas_trill_whole_MF_C6.opus
</region>

<region>
hikey=c5
hivel=127
lokey=b4
loop_end=234428
loop_mode=loop_continuous
loop_start=83534
loop_xfade=37723
lovel=0
offset=338
pitch_keycenter=c5
sample=Violas_trill_whole_MF_C5.opus
</region>

<region>
hikey=c4
hivel=127
lokey=b3
loop_end=249785
loop_mode=loop_continuous
loop_start=89006
loop_xfade=40194
lovel=0
offset=596
pitch_keycenter=c4
sample=Violas_trill_whole_MF_C4.opus
</region>

<region>
hivel=127
key=c3
loop_end=232864
loop_mode=loop_continuous
loop_start=82976
loop_xfade=37472
lovel=0
offset=2425
sample=Violas_trill_whole_MF_C3.opus
</region>

<region>
hikey=a#5
hivel=127
lokey=a5
loop_end=255394
loop_mode=loop_continuous
loop_start=91004
loop_xfade=41097
lovel=0
offset=1317
pitch_keycenter=a#5
sample=Violas_trill_whole_MF_A#5.opus
</region>

<region>
hikey=a#4
hivel=127
lokey=a4
loop_end=232719
loop_mode=loop_continuous
loop_start=82924
loop_xfade=37448
lovel=0
offset=575
pitch_keycenter=a#4
sample=Violas_trill_whole_MF_A#4.opus
</region>

<region>
hikey=a#3
hivel=127
lokey=a3
loop_end=228275
loop_mode=loop_continuous
loop_start=81341
loop_xfade=36733
lovel=0
offset=346
pitch_keycenter=a#3
sample=Violas_trill_whole_MF_A#3.opus
</region>
</group>

<group>
group_label=FF
seq_length=1
seq_position=1
xf_cccurve=gain
xfin_hicc1=127
xfin_locc1=85
xfout_hicc1=127
xfout_locc1=127

<region>
hikey=g#5
hivel=127
lokey=g5
loop_end=241726
loop_mode=loop_continuous
loop_start=86134
loop_xfade=38898
lovel=0
offset=702
pitch_keycenter=g#5
sample=Violas_trill_whole_FF_G#5.opus
</region>

<region>
hikey=g#4
hivel=127
lokey=g4
loop_end=241250
loop_mode=loop_continuous
loop_start=85965
loop_xfade=38821
lovel=0
offset=305
pitch_keycenter=g#4
sample=Violas_trill_whole_FF_G#4.opus
</region>

<region>
hikey=g#3
hivel=127
lokey=g3
loop_end=241091
loop_mode=loop_continuous
loop_start=85908
loop_xfade=38795
lovel=0
offset=928
pitch_keycenter=g#3
sample=Violas_trill_whole_FF_G#3.opus
</region>

<region>
hikey=f#5
hivel=127
lokey=f5
loop_end=238087
loop_mode=loop_continuous
loop_start=84838
loop_xfade=38312
lovel=0
offset=4694
pitch_keycenter=f#5
sample=Violas_trill_whole_FF_F#5.opus
</region>

<region>
hikey=f#4
hivel=127
lokey=f4
loop_end=239407
loop_mode=loop_continuous
loop_start=85308
loop_xfade=38524
lovel=0
offset=550
pitch_keycenter=f#4
sample=Violas_trill_whole_FF_F#4.opus
</region>

<region>
hikey=f#3
hivel=127
lokey=f3
loop_end=244240
loop_mode=loop_continuous
loop_start=87030
loop_xfade=39302
lovel=0
offset=154
pitch_keycenter=f#3
sample=Violas_trill_whole_FF_F#3.opus
</region>

<region>
hikey=e5
hivel=127
lokey=d#5
loop_end=261505
loop_mode=loop_continuous
loop_start=93182
loop_xfade=42080
lovel=0
pitch_keycenter=e5
sample=Violas_trill_whole_FF_E5.opus
</region>

<region>
hikey=e4
hivel=127
lokey=d#4
loop_end=239756
loop_mode=loop_continuous
loop_start=85432
loop_xfade=38581
lovel=0
pitch_keycenter=e4
sample=Violas_trill_whole_FF_E4.opus
</region>

<region>
hikey=e3
hivel=127
lokey=d#3
loop_end=236334
loop_mode=loop_continuous
loop_start=84213
loop_xfade=38030
lovel=0
pitch_keycenter=e3
sample=Violas_trill_whole_FF_E3.opus
</region>

<region>
hikey=d5
hivel=127
lokey=c#5
loop_end=240900
loop_mode=loop_continuous
loop_start=85840
loop_xfade=38765
lovel=0
offset=1018
pitch_keycenter=d5
sample=Violas_trill_whole_FF_D5.opus
</region>

<region>
hikey=d4
hivel=127
lokey=c#4
loop_end=245563
loop_mode=loop_continuous
loop_start=87501
loop_xfade=39515
lovel=0
offset=1145
pitch_keycenter=d4
sample=Violas_trill_whole_FF_D4.opus
</region>

<region>
hikey=d3
hivel=127
lokey=c#3
loop_end=241812
loop_mode=loop_continuous
loop_start=86165
loop_xfade=38911
lovel=0
offset=1202
pitch_keycenter=d3
sample=Violas_trill_whole_FF_D3.opus
</region>

<region>
hikey=c6
hivel=127
lokey=b5
loop_end=234594
loop_mode=loop_continuous
loop_start=83593
loop_xfade=37750
lovel=0
offset=1025
pitch_keycenter=C6
sample=Violas_trill_whole_FF_C6.opus
</region>

<region>
hikey=c5
hivel=127
lokey=b4
loop_end=240982
loop_mode=loop_continuous
loop_start=85869
loop_xfade=38778
lovel=0
offset=2550
pitch_keycenter=c5
sample=Violas_trill_whole_FF_C5.opus
</region>

<region>
hikey=c4
hivel=127
lokey=b3
loop_end=244106
loop_mode=loop_continuous
loop_start=86982
loop_xfade=39281
lovel=0
pitch_keycenter=c4
sample=Violas_trill_whole_FF_C4.opus
</region>

<region>
hivel=127
key=c3
loop_end=242456
loop_mode=loop_continuous
loop_start=86394
loop_xfade=39015
lovel=0
sample=Violas_trill_whole_FF_C3.opus
</region>

<region>
hikey=a#5
hivel=127
lokey=a5
loop_end=236463
loop_mode=loop_continuous
loop_start=84259
loop_xfade=38051
lovel=0
offset=571
pitch_keycenter=a#5
sample=Violas_trill_whole_FF_A#5.opus
</region>

<region>
hikey=a#4
hivel=127
lokey=a4
loop_end=240638
loop_mode=loop_continuous
loop_start=85747
loop_xfade=38722
lovel=0
pitch_keycenter=a#4
sample=Violas_trill_whole_FF_A#4.opus
</region>

<region>
hikey=a#3
hivel=127
lokey=a3
loop_end=245867
loop_mode=loop_continuous
loop_start=87610
loop_xfade=39564
lovel=0
pitch_keycenter=a#3
sample=Violas_trill_whole_FF_A#3.opus
</region>
</group>